<?xml version="1.0" encoding="UTF-8" standalone="no" ?>
<!DOCTYPE svg PUBLIC "-//W3C//DTD SVG 1.1//EN" "http://www.w3.org/Graphics/SVG/1.1/DTD/svg11.dtd">
<svg xmlns="http://www.w3.org/2000/svg" xmlns:xlink="http://www.w3.org/1999/xlink" version="1.1" width="1280" height="1024" viewBox="0 0 1280 1024" xml:space="preserve">
<desc>Created with Fabric.js 3.1.0</desc>
<defs>
</defs>
<g transform="matrix(1.9692780337941629 0 0 1.9692780337941629 640.0153846153846 512.012312418764)" id="background-logo"  >
<rect style="stroke: none; stroke-width: 1; stroke-dasharray: none; stroke-linecap: butt; stroke-dashoffset: 0; stroke-linejoin: miter; stroke-miterlimit: 10; fill: rgb(0,0,0); fill-rule: nonzero; opacity: 1;"  paint-order="stroke"  x="-325" y="-260" rx="0" ry="0" width="650" height="520" />
</g>
<g transform="matrix(1.9692780337941629 0 0 1.9692780337941629 640.0152959978731 422.6297191507149)" style="" id="logo-logo"  >
	<g transform="matrix(0.0365 0 0 -0.0365 -1.7973550000000387 -47.86469125000002)"  >
<path style="stroke: none; stroke-width: 1; stroke-dasharray: none; stroke-linecap: butt; stroke-dashoffset: 0; stroke-linejoin: miter; stroke-miterlimit: 10; fill: rgb(122,71,32); fill-rule: evenodd; opacity: 1;"  paint-order="stroke"  transform=" translate(-5748.17, -5432.880000000001)" d="m 5751.64 6090.68 c 628.87 0 1186.36 -305.48 1532.27 -776.11 c -477.07 -106.91 -948.98 -266.55 -1415.35 -482.8 l -122.25 -56.69 c -414.72 196.49 -834.34 350.28 -1258.01 462.71 c -91.78 24.37 -183.74 46.73 -275.87 67.21 c 345.37 476.04 906.09 785.68 1539.21 785.68" stroke-linecap="round" />
</g>
	<g transform="matrix(0.0365 0 0 -0.0365 85.74964499999999 -12.582591250000036)"  >
<path style="stroke: none; stroke-width: 1; stroke-dasharray: none; stroke-linecap: butt; stroke-dashoffset: 0; stroke-linejoin: miter; stroke-miterlimit: 10; fill: rgb(114,148,171); fill-rule: evenodd; opacity: 1;"  paint-order="stroke"  transform=" translate(-8146.744999999999, -4466.238911460646)" d="m 10355.4 5154.93 c -1515.3 306.6 -2991.3 187.33 -4417.31 -473.91 c 536.03 -272.06 1063.53 -616.38 1580.59 -1036.04 l 34.42 -27.93 c 34.43 24.64 68.9 49.09 103.42 73.34 c -48.84 39.98 -99.81 80.47 -154.96 119.09 c -9.37 6.55 -11.67 19.46 -5.11 28.83 c 6.54 9.37 19.45 11.66 28.82 5.12 c 60.64 -42.47 114.9 -85.86 166.59 -128.3 c 21.77 15.18 43.55 30.3 65.36 45.33 c -31.84 25.13 -64.81 50.11 -99.43 74.35 c -9.37 6.55 -11.66 19.46 -5.11 28.83 c 6.54 9.38 19.46 11.67 28.83 5.12 c 39.53 -27.67 76.35 -55.75 111.51 -83.71 c 21.45 14.7 42.91 29.31 64.41 43.86 c -49.27 40.34 -100.68 81.23 -156.35 120.22 c -9.37 6.55 -11.67 19.46 -5.12 28.84 c 6.54 9.37 19.47 11.66 28.84 5.11 c 61.41 -43.01 116.28 -86.97 168.57 -129.94 c 22.16 14.9 44.35 29.72 66.55 44.46 c -32.82 25.98 -66.83 51.82 -102.61 76.87 c -9.37 6.55 -11.67 19.46 -5.11 28.83 c 6.54 9.37 19.46 11.66 28.83 5.12 c 40.95 -28.68 78.99 -57.78 115.3 -86.73 c 21.81 14.38 43.63 28.67 65.47 42.89 c -50.75 41.64 -103.7 83.94 -161.2 124.21 c -9.38 6.55 -11.67 19.46 -5.12 28.84 c 6.55 9.36 19.46 11.65 28.84 5.11 c 63.56 -44.51 120.11 -90.05 174.04 -134.44 c 28.72 18.57 57.48 37.01 86.28 55.32 c -30.32 23.83 -61.69 47.5 -94.54 70.51 c -9.37 6.54 -11.66 19.46 -5.12 28.82 c 6.55 9.37 19.47 11.67 28.84 5.12 c 38.2 -26.75 73.88 -53.88 107.97 -80.91 c 22.26 14.06 44.56 28.04 66.86 41.95 c -48.94 40.06 -100.01 80.63 -155.27 119.33 c -9.36 6.55 -11.66 19.46 -5.11 28.84 c 6.55 9.37 19.46 11.65 28.83 5.11 c 61.51 -43.07 116.46 -87.1 168.82 -130.14 c 23.29 14.41 46.6 28.74 69.93 42.98 c -29.89 23.46 -60.8 46.76 -93.15 69.42 c -9.38 6.54 -11.66 19.46 -5.12 28.83 c 6.55 9.37 19.46 11.66 28.83 5.11 c 37.95 -26.57 73.4 -53.5 107.29 -80.35 c 22.67 13.74 45.36 27.39 68.07 40.96 c -49.09 40.21 -100.33 80.93 -155.79 119.76 c -9.37 6.55 -11.66 19.47 -5.12 28.84 c 6.55 9.37 19.46 11.66 28.84 5.11 c 61.98 -43.4 117.29 -87.77 170 -131.11 c 24.66 14.62 49.34 29.15 74.03 43.59 c -30.82 24.26 -62.73 48.36 -96.17 71.78 c -9.37 6.55 -11.66 19.46 -5.11 28.83 c 6.55 9.38 19.46 11.67 28.83 5.13 c 39.33 -27.55 75.98 -55.49 110.98 -83.3 c 23.07 13.38 46.16 26.67 69.26 39.89 c -50.58 41.5 -103.37 83.64 -160.68 123.78 c -9.37 6.54 -11.66 19.46 -5.11 28.83 c 6.55 9.37 19.46 11.66 28.83 5.11 c 64.17 -44.93 121.2 -90.92 175.6 -135.71 c 25.83 14.66 51.68 29.21 77.55 43.66 c -26.94 20.96 -54.73 41.75 -83.68 62.02 c -9.38 6.54 -11.66 19.46 -5.12 28.83 c 6.55 9.37 19.47 11.67 28.84 5.12 c 34.98 -24.5 67.85 -49.31 99.31 -74.07 c 23.59 13.07 47.19 26.05 70.82 38.94 c -47.51 38.81 -97.07 78.03 -150.57 115.49 c -9.37 6.55 -11.66 19.47 -5.12 28.84 c 6.55 9.37 19.47 11.66 28.84 5.11 c 60.51 -42.37 114.66 -85.66 166.24 -128.02 c 28.11 15.21 56.23 30.31 84.39 45.29 c -29.24 22.9 -59.45 45.63 -91.04 67.75 c -9.38 6.55 -11.67 19.47 -5.12 28.84 c 6.54 9.37 19.46 11.66 28.83 5.11 c 38 -26.61 73.49 -53.58 107.41 -80.46 c 23.99 12.66 48.01 25.23 72.05 37.71 c -50.35 41.29 -102.89 83.2 -159.89 123.12 c -9.37 6.54 -11.66 19.46 -5.12 28.83 c 6.55 9.37 19.47 11.67 28.84 5.12 c 64.45 -45.14 121.69 -91.33 176.31 -136.31 c 28.8 14.84 57.63 29.54 86.48 44.13 c -27.53 21.45 -55.95 42.74 -85.57 63.49 c -9.37 6.55 -11.67 19.46 -5.12 28.83 c 6.55 9.37 19.46 11.66 28.83 5.12 c 36.29 -25.41 70.3 -51.15 102.83 -76.83 c 24.51 12.27 49.04 24.47 73.58 36.57 c -49.41 40.49 -100.98 81.51 -156.84 120.63 c -9.37 6.54 -11.66 19.46 -5.12 28.83 c 6.55 9.37 19.47 11.66 28.84 5.12 c 63.57 -44.53 120.14 -90.07 174.08 -134.48 c 31 15.15 62.03 30.15 93.08 45.01 c -27.25 21.23 -55.38 42.27 -84.69 62.8 c -9.37 6.54 -11.66 19.46 -5.11 28.83 c 6.54 9.37 19.46 11.67 28.83 5.12 c 36.28 -25.42 70.29 -51.15 102.82 -76.83 c 25.02 11.86 50.06 23.63 75.13 35.31 c -49.89 40.89 -101.95 82.36 -158.38 121.89 c -9.37 6.54 -11.66 19.46 -5.12 28.83 c 6.55 9.37 19.47 11.66 28.83 5.12 c 64.52 -45.18 121.81 -91.42 176.47 -136.44 c 28.7 13.26 57.42 26.38 86.17 39.39 c -26.87 20.89 -54.59 41.62 -83.45 61.84 c -9.37 6.54 -11.66 19.46 -5.12 28.83 c 6.55 9.37 19.46 11.66 28.83 5.11 c 36.16 -25.31 70.05 -50.96 102.47 -76.54 c 25.54 11.44 51.1 22.78 76.68 34.04 c -50.25 41.21 -102.69 83.03 -159.58 122.87 c -9.37 6.55 -11.66 19.46 -5.11 28.83 c 6.54 9.38 19.46 11.67 28.83 5.12 c 65.33 -45.74 123.25 -92.58 178.53 -138.14 c 129.27 56.3 258.97 110.26 389.37 161.88 z M 9117.32 4920.56 v 0 C 8620.61 4723.83 8139.4 4461.49 7674.8 4128.91 l -17.72 14.38 c -266.16 216.03 -537.7 393.27 -813.63 533.32 c 734.06 340.38 1493.86 401.77 2273.87 243.95" stroke-linecap="round" />
</g>
	<g transform="matrix(0.0365 0 0 -0.0365 -53.67855500000002 14.350208750000036)"  >
<path style="stroke: none; stroke-width: 1; stroke-dasharray: none; stroke-linecap: butt; stroke-dashoffset: 0; stroke-linejoin: miter; stroke-miterlimit: 10; fill: rgb(163,211,29); fill-rule: evenodd; opacity: 1;"  paint-order="stroke"  transform=" translate(-4326.755, -3728.3450000000007)" d="m 1239.44 5154.93 c 109.3 22.12 218.5 41.8 327.59 59.05 c -50.12 -43.26 -99.94 -87 -149.44 -131.2 c -59.28 24.54 -118.65 48.59 -178.15 72.15 z m 405.05 70.89 v 0 c -61.93 -52.87 -123.4 -106.43 -184.43 -160.71 c 197.84 -82.76 394.39 -170.96 589.64 -264.66 c 197.07 175.21 398.93 342.96 605.25 503.76 c -335.37 -2.16 -672.33 -28.5 -1010.46 -78.39 z m 1078.3 78.53 v 0 c 289.81 -0.95 578.41 -20.05 865.51 -57.73 c -322.55 -235.43 -635.07 -486.52 -936.34 -755.12 c -186.03 101.67 -373.3 198.12 -561.78 289.4 c 205.76 182.42 416.75 356.7 632.61 523.45 z m 924.94 -65.8 v 0 c -329.96 -239.15 -649.45 -494.56 -957.18 -768.23 c 179.98 -99.15 358.79 -203.21 536.43 -312.24 c 374.07 336.48 765.65 645.68 1172.44 931.15 c -249.28 64.3 -499.9 113.99 -751.69 149.32 z m 804.34 -163.11 v 0 c -412.5 -287.83 -809.4 -599.93 -1188.28 -940.02 c 172.26 -106.49 343.42 -217.67 513.46 -333.6 c 424.52 387.52 872.02 739.22 1339.06 1060.45 c -220.23 82.89 -441.69 153.89 -664.24 213.17 z m 711.41 -231.12 v 0 c 199.87 -76.83 398.73 -163.5 596.47 -260.18 c -509.53 -348.43 -995.96 -732.88 -1454.85 -1160.23 c -163.15 122.49 -327.39 240.43 -492.69 353.87 c 428.09 390.11 879.63 743.8 1351.07 1066.54 z m 639.22 -281.24 v 0 c 181.99 -90.38 363.03 -189.24 543.05 -296.73 C 5807 3895.89 5294.26 3484.88 4812.79 3025.15 c -156.98 128.86 -315 253.31 -474.05 373.43 c 461.54 429.25 951.03 815.07 1463.96 1164.5 z m 582.21 -320.16 v 0 c 167.68 -101.36 334.47 -210.19 500.28 -326.66 c -558.01 -389.37 -1087.6 -823.05 -1582.85 -1310.24 c -151.44 135.11 -303.89 265.92 -457.33 392.56 c 483.42 461.2 998.51 873.21 1539.9 1244.34 z m 536.3 -352.13 v 0 c -559.99 -389.81 -1091.3 -824.17 -1587.89 -1312.46 c 153.45 -137.62 305.88 -279.57 457.25 -425.99 c 510.01 509.01 1051.2 963.66 1623.5 1363.99 c -163.27 132.51 -327.59 257.2 -492.86 374.46" stroke-linecap="round" />
</g>
</g>
<g transform="matrix(1.9692780337941629 0 0 1.9692780337941629 640.0153846153846 667.7346312089542)" id="text-logo-path"  >
<path style="stroke: none; stroke-width: 1; stroke-dasharray: none; stroke-linecap: butt; stroke-dashoffset: 0; stroke-linejoin: miter; stroke-miterlimit: 10; fill: rgb(123,68,28); fill-rule: nonzero; opacity: 1;"  paint-order="stroke"  transform=" translate(-300.01, 15.920000000000002)" d="M 3.03 -31.18 L 3.03 -31.18 Q 3.03 -43.59 20.43 -43.59 L 20.43 -43.59 Q 28 -43.59 34.51 -41.78 L 34.51 -41.78 L 34.51 -36.63 Q 28 -39.05 20.43 -39.05 L 20.43 -39.05 Q 8.63 -39.05 8.63 -31.18 L 8.63 -31.18 Q 8.63 -24.22 16.62 -24.22 L 16.62 -24.22 L 22.19 -24.22 Q 36.03 -24.22 36.03 -12.41 L 36.03 -12.41 Q 36.03 0.3 19.25 0.3 L 19.25 0.3 Q 11.35 0.3 4.54 -1.51 L 4.54 -1.51 L 4.54 -6.66 Q 11.35 -4.24 19.25 -4.24 L 19.25 -4.24 Q 30.42 -4.24 30.42 -12.41 L 30.42 -12.41 Q 30.42 -19.38 22.19 -19.38 L 22.19 -19.38 L 16.62 -19.38 Q 3.03 -19.38 3.03 -31.18 Z M 43.59 -11.84 L 43.59 -11.84 L 43.59 -31.79 L 49.19 -31.79 L 49.19 -11.75 Q 49.19 -4.66 56.22 -4.66 L 56.22 -4.66 Q 61.03 -4.66 65.39 -8.69 L 65.39 -8.69 L 65.39 -31.79 L 70.99 -31.79 L 70.99 0 L 67.15 0 L 66.18 -4.06 Q 60.4 0 54.55 0 L 54.55 0 Q 43.59 0 43.59 -11.84 Z M 85.67 0 L 80.07 0 L 80.07 -31.79 L 83.86 -31.79 L 84.86 -27.73 Q 89.03 -31.79 94.91 -31.79 L 94.91 -31.79 L 94.91 -27.13 Q 89.22 -27.13 85.67 -23.1 L 85.67 -23.1 L 85.67 0 Z M 106.11 0 L 100.51 0 L 100.51 -31.79 L 104.29 -31.79 L 105.29 -27.73 Q 109.47 -31.79 115.34 -31.79 L 115.34 -31.79 L 115.34 -27.13 Q 109.65 -27.13 106.11 -23.1 L 106.11 -23.1 L 106.11 0 Z M 119.43 -16.26 L 119.43 -16.26 Q 119.43 -31.79 134.05 -31.79 L 134.05 -31.79 Q 147.61 -31.79 147.61 -18.38 L 147.61 -18.38 Q 147.61 -16.47 147.34 -14.29 L 147.34 -14.29 L 125.03 -14.29 Q 125.03 -4.54 136.41 -4.54 L 136.41 -4.54 Q 141.83 -4.54 146.04 -5.75 L 146.04 -5.75 L 146.04 -1.21 Q 141.83 0 135.81 0 L 135.81 0 Q 119.43 0 119.43 -16.26 Z M 125.03 -18.95 L 125.03 -18.95 L 142.22 -18.95 Q 142.04 -27.31 134.05 -27.31 L 134.05 -27.31 Q 125.57 -27.31 125.03 -18.95 Z M 163.54 0.18 L 151.37 -31.79 L 157.45 -31.79 L 166.44 -6.96 L 175.74 -31.79 L 181.67 -31.79 L 168.47 0.94 Q 164.96 9.6 157.94 11.75 L 157.94 11.75 L 155.79 7.78 Q 161.12 5.45 163.54 0.18 L 163.54 0.18 Z M 230.93 0 L 202.68 0 L 202.68 -43.29 L 208.28 -43.29 L 208.28 -4.54 L 230.93 -4.54 L 230.93 0 Z M 235.47 -9.6 L 235.47 -9.6 Q 235.47 -19.38 248.36 -19.38 L 248.36 -19.38 Q 252.51 -19.38 256.66 -18.77 L 256.66 -18.77 L 256.66 -21.77 Q 256.66 -27.25 248.09 -27.25 L 248.09 -27.25 Q 243.19 -27.25 238.04 -25.73 L 238.04 -25.73 L 238.04 -30.27 Q 243.19 -31.79 248.09 -31.79 L 248.09 -31.79 Q 262.26 -31.79 262.26 -21.92 L 262.26 -21.92 L 262.26 0 L 259.11 0 L 257.17 -3.15 Q 252.42 0 246.82 0 L 246.82 0 Q 235.47 0 235.47 -9.6 Z M 241.07 -9.69 L 241.07 -9.69 Q 241.07 -4.54 246.82 -4.54 L 246.82 -4.54 Q 252.63 -4.54 256.66 -7.63 L 256.66 -7.63 L 256.66 -14.23 Q 252.51 -14.83 248.36 -14.83 L 248.36 -14.83 Q 241.07 -14.83 241.07 -9.69 Z M 276.94 0 L 271.34 0 L 271.34 -31.79 L 275.13 -31.79 L 276.12 -27.73 Q 281 -31.79 286.84 -31.79 L 286.84 -31.79 Q 298.74 -31.79 298.74 -19.95 L 298.74 -19.95 L 298.74 0 L 293.14 0 L 293.14 -20.04 Q 293.14 -27.13 286.08 -27.13 L 286.08 -27.13 Q 281.27 -27.13 276.94 -23.1 L 276.94 -23.1 L 276.94 0 Z M 306.31 -16.53 L 306.31 -16.53 Q 306.31 -31.79 321.38 -31.79 L 321.38 -31.79 Q 325.5 -31.79 329.16 -30.27 L 329.16 -30.27 L 329.16 -43.29 L 334.76 -43.29 L 334.76 -1.91 Q 328.98 0 320.5 0 L 320.5 0 Q 306.31 0 306.31 -16.53 Z M 311.82 -16.74 L 311.82 -16.74 Q 311.82 -4.66 321.41 -4.66 L 321.41 -4.66 Q 325.77 -4.66 329.16 -5.84 L 329.16 -5.84 L 329.16 -25.31 Q 325.77 -26.94 321.41 -26.94 L 321.41 -26.94 Q 311.82 -26.94 311.82 -16.74 Z M 342.33 -22.71 L 342.33 -22.71 Q 342.33 -31.79 355.56 -31.79 L 355.56 -31.79 Q 361.25 -31.79 366.85 -30.27 L 366.85 -30.27 L 366.85 -25.43 Q 361.25 -27.25 355.56 -27.25 L 355.56 -27.25 Q 347.63 -27.25 347.63 -22.71 L 347.63 -22.71 Q 347.63 -18.47 352.63 -18.47 L 352.63 -18.47 L 357.17 -18.47 Q 368.06 -18.47 368.06 -9.08 L 368.06 -9.08 Q 368.06 0 354.87 0 L 354.87 0 Q 349.14 0 343.54 -1.51 L 343.54 -1.51 L 343.54 -6.36 Q 349.14 -4.54 354.87 -4.54 L 354.87 -4.54 Q 362.46 -4.54 362.46 -9.08 L 362.46 -9.08 Q 362.46 -13.32 357.17 -13.32 L 357.17 -13.32 L 352.63 -13.32 Q 342.33 -13.32 342.33 -22.71 Z M 374.12 -16.5 L 374.12 -16.5 Q 374.12 -31.79 391.07 -31.79 L 391.07 -31.79 Q 395.61 -31.79 399.55 -30.88 L 399.55 -30.88 L 399.55 -26.34 Q 395.61 -27.25 390.77 -27.25 L 390.77 -27.25 Q 379.72 -27.25 379.72 -16.5 L 379.72 -16.5 Q 379.72 -4.54 390.77 -4.54 L 390.77 -4.54 Q 395.61 -4.54 399.55 -5.45 L 399.55 -5.45 L 399.55 -0.91 Q 395.61 0 391.07 0 L 391.07 0 Q 374.12 0 374.12 -16.5 Z M 405.15 -9.6 L 405.15 -9.6 Q 405.15 -19.38 418.05 -19.38 L 418.05 -19.38 Q 422.19 -19.38 426.34 -18.77 L 426.34 -18.77 L 426.34 -21.77 Q 426.34 -27.25 417.77 -27.25 L 417.77 -27.25 Q 412.87 -27.25 407.72 -25.73 L 407.72 -25.73 L 407.72 -30.27 Q 412.87 -31.79 417.77 -31.79 L 417.77 -31.79 Q 431.94 -31.79 431.94 -21.92 L 431.94 -21.92 L 431.94 0 L 428.79 0 L 426.86 -3.15 Q 422.1 0 416.5 0 L 416.5 0 Q 405.15 0 405.15 -9.6 Z M 410.75 -9.69 L 410.75 -9.69 Q 410.75 -4.54 416.5 -4.54 L 416.5 -4.54 Q 422.31 -4.54 426.34 -7.63 L 426.34 -7.63 L 426.34 -14.23 Q 422.19 -14.83 418.05 -14.83 L 418.05 -14.83 Q 410.75 -14.83 410.75 -9.69 Z M 446.62 11.5 L 441.02 11.5 L 441.02 -30.49 Q 447.35 -31.79 454.1 -31.79 L 454.1 -31.79 Q 469.39 -31.79 469.39 -16.68 L 469.39 -16.68 Q 469.39 0 454.01 0 L 454.01 0 Q 450.2 0 446.62 -1.51 L 446.62 -1.51 L 446.62 11.5 Z M 446.62 -26.4 L 446.62 -6.48 Q 449.92 -4.84 453.98 -4.84 L 453.98 -4.84 Q 463.88 -4.84 463.88 -16.74 L 463.88 -16.74 Q 463.88 -27.13 454.04 -27.13 L 454.04 -27.13 Q 449.8 -27.13 446.62 -26.4 L 446.62 -26.4 Z M 475.44 -16.26 L 475.44 -16.26 Q 475.44 -31.79 490.07 -31.79 L 490.07 -31.79 Q 503.63 -31.79 503.63 -18.38 L 503.63 -18.38 Q 503.63 -16.47 503.36 -14.29 L 503.36 -14.29 L 481.04 -14.29 Q 481.04 -4.54 492.43 -4.54 L 492.43 -4.54 Q 497.85 -4.54 502.05 -5.75 L 502.05 -5.75 L 502.05 -1.21 Q 497.85 0 491.82 0 L 491.82 0 Q 475.44 0 475.44 -16.26 Z M 481.04 -18.95 L 481.04 -18.95 L 498.24 -18.95 Q 498.06 -27.31 490.07 -27.31 L 490.07 -27.31 Q 481.59 -27.31 481.04 -18.95 Z M 524.79 -22.25 L 524.79 -22.25 Q 524.79 -43.59 547.5 -43.59 L 547.5 -43.59 Q 554 -43.59 559.6 -41.78 L 559.6 -41.78 L 559.6 -36.93 Q 554 -39.05 548.1 -39.05 L 548.1 -39.05 Q 530.39 -39.05 530.39 -22.25 L 530.39 -22.25 Q 530.39 -4.24 548.1 -4.24 L 548.1 -4.24 Q 554 -4.24 559.6 -6.36 L 559.6 -6.36 L 559.6 -1.51 Q 554 0.3 547.5 0.3 L 547.5 0.3 Q 524.79 0.3 524.79 -22.25 Z M 566.72 -15.89 L 566.72 -15.89 Q 566.72 -31.79 581.86 -31.79 L 581.86 -31.79 Q 596.99 -31.79 596.99 -15.89 L 596.99 -15.89 Q 596.99 -0.03 581.86 -0.03 L 581.86 -0.03 Q 566.78 -0.03 566.72 -15.89 Z M 572.32 -16.01 L 572.32 -16.01 Q 572.32 -4.54 581.86 -4.54 L 581.86 -4.54 Q 591.39 -4.54 591.39 -16.01 L 591.39 -16.01 Q 591.39 -27.25 581.86 -27.25 L 581.86 -27.25 Q 572.32 -27.25 572.32 -16.01 Z" stroke-linecap="round" />
</g>
<g transform="matrix(1.9692780337941629 0 0 1.9692780337941629 640.2365437695705 765.6639526836084)" id="tagline-1d63bd9c-5572-40cf-a10b-6b831a38f341-logo-path"  >
<path style="stroke: none; stroke-width: 0; stroke-dasharray: none; stroke-linecap: butt; stroke-dashoffset: 0; stroke-linejoin: miter; stroke-miterlimit: 4; fill: rgb(114,148,171); fill-rule: nonzero; opacity: 1;"  paint-order="stroke"  transform=" translate(-165.44, 6.625)" d="M 3.76 0 L 1.91 0 L 1.91 -16.06 L 4.55 -16.06 L 10.44 -2.66 L 16.23 -16.06 L 18.75 -16.06 L 18.75 0 L 16.9 0 L 16.9 -13.17 L 11.2 0 L 9.56 0 L 3.76 -13.17 L 3.76 0 Z M 21.79 -5.9 L 21.79 -5.9 Q 21.79 -11.79 27.4 -11.79 L 27.4 -11.79 Q 33.02 -11.79 33.02 -5.9 L 33.02 -5.9 Q 33.02 -0.01 27.4 -0.01 L 27.4 -0.01 Q 21.81 -0.01 21.79 -5.9 Z M 23.86 -5.94 L 23.86 -5.94 Q 23.86 -1.68 27.4 -1.68 L 27.4 -1.68 Q 30.94 -1.68 30.94 -5.94 L 30.94 -5.94 Q 30.94 -10.11 27.4 -10.11 L 27.4 -10.11 Q 23.86 -10.11 23.86 -5.94 Z M 38.64 0 L 34.14 -11.79 L 36.39 -11.79 L 39.77 -2.55 L 43.13 -11.79 L 45.37 -11.79 L 40.58 0 L 38.64 0 Z M 46.49 -6.03 L 46.49 -6.03 Q 46.49 -11.79 51.92 -11.79 L 51.92 -11.79 Q 56.95 -11.79 56.95 -6.82 L 56.95 -6.82 Q 56.95 -6.11 56.85 -5.3 L 56.85 -5.3 L 48.57 -5.3 Q 48.57 -1.68 52.79 -1.68 L 52.79 -1.68 Q 54.8 -1.68 56.37 -2.13 L 56.37 -2.13 L 56.37 -0.45 Q 54.8 0 52.57 0 L 52.57 0 Q 46.49 0 46.49 -6.03 Z M 48.57 -7.03 L 48.57 -7.03 L 54.95 -7.03 Q 54.88 -10.13 51.92 -10.13 L 51.92 -10.13 Q 48.77 -10.13 48.57 -7.03 Z M 65.36 -3.18 L 65.36 -3.18 L 65.36 -13.7 L 66.66 -13.7 L 67.11 -11.79 L 70.3 -11.79 L 70.3 -10.11 L 67.44 -10.11 L 67.44 -3.34 Q 67.44 -1.68 68.87 -1.68 L 68.87 -1.68 L 70.3 -1.68 L 70.3 0 L 68.33 0 Q 65.36 0 65.36 -3.18 Z M 75.02 0 L 72.94 0 L 72.94 -16.06 L 75.02 -16.06 L 75.02 -10.51 Q 76.52 -11.79 78.69 -11.79 L 78.69 -11.79 Q 83.11 -11.79 83.11 -7.4 L 83.11 -7.4 L 83.11 0 L 81.03 0 L 81.03 -7.43 Q 81.03 -10.06 78.41 -10.06 L 78.41 -10.06 Q 76.63 -10.06 75.02 -8.57 L 75.02 -8.57 L 75.02 0 Z M 85.91 -6.03 L 85.91 -6.03 Q 85.91 -11.79 91.34 -11.79 L 91.34 -11.79 Q 96.37 -11.79 96.37 -6.82 L 96.37 -6.82 Q 96.37 -6.11 96.27 -5.3 L 96.27 -5.3 L 87.99 -5.3 Q 87.99 -1.68 92.21 -1.68 L 92.21 -1.68 Q 94.22 -1.68 95.78 -2.13 L 95.78 -2.13 L 95.78 -0.45 Q 94.22 0 91.99 0 L 91.99 0 Q 85.91 0 85.91 -6.03 Z M 87.99 -7.03 L 87.99 -7.03 L 94.37 -7.03 Q 94.3 -10.13 91.34 -10.13 L 91.34 -10.13 Q 88.19 -10.13 87.99 -7.03 Z M 104.22 -6.03 L 104.22 -6.03 Q 104.22 -11.79 109.64 -11.79 L 109.64 -11.79 Q 114.67 -11.79 114.67 -6.82 L 114.67 -6.82 Q 114.67 -6.11 114.57 -5.3 L 114.57 -5.3 L 106.3 -5.3 Q 106.3 -1.68 110.52 -1.68 L 110.52 -1.68 Q 112.53 -1.68 114.09 -2.13 L 114.09 -2.13 L 114.09 -0.45 Q 112.53 0 110.29 0 L 110.29 0 Q 104.22 0 104.22 -6.03 Z M 106.3 -7.03 L 106.3 -7.03 L 112.68 -7.03 Q 112.61 -10.13 109.64 -10.13 L 109.64 -10.13 Q 106.5 -10.13 106.3 -7.03 Z M 116.91 -3.56 L 116.91 -3.56 Q 116.91 -7.19 121.69 -7.19 L 121.69 -7.19 Q 123.23 -7.19 124.77 -6.96 L 124.77 -6.96 L 124.77 -8.07 Q 124.77 -10.11 121.59 -10.11 L 121.59 -10.11 Q 119.77 -10.11 117.86 -9.55 L 117.86 -9.55 L 117.86 -11.23 Q 119.77 -11.79 121.59 -11.79 L 121.59 -11.79 Q 126.85 -11.79 126.85 -8.13 L 126.85 -8.13 L 126.85 0 L 125.68 0 L 124.96 -1.17 Q 123.2 0 121.12 0 L 121.12 0 Q 116.91 0 116.91 -3.56 Z M 118.99 -3.59 L 118.99 -3.59 Q 118.99 -1.68 121.12 -1.68 L 121.12 -1.68 Q 123.28 -1.68 124.77 -2.83 L 124.77 -2.83 L 124.77 -5.28 Q 123.23 -5.5 121.69 -5.5 L 121.69 -5.5 Q 118.99 -5.5 118.99 -3.59 Z M 132.29 0 L 130.22 0 L 130.22 -11.79 L 131.62 -11.79 L 131.99 -10.29 Q 133.54 -11.79 135.72 -11.79 L 135.72 -11.79 L 135.72 -10.06 Q 133.61 -10.06 132.29 -8.57 L 132.29 -8.57 L 132.29 0 Z M 137.8 -3.18 L 137.8 -3.18 L 137.8 -13.7 L 139.1 -13.7 L 139.55 -11.79 L 142.74 -11.79 L 142.74 -10.11 L 139.88 -10.11 L 139.88 -3.34 Q 139.88 -1.68 141.3 -1.68 L 141.3 -1.68 L 142.74 -1.68 L 142.74 0 L 140.76 0 Q 137.8 0 137.8 -3.18 Z M 147.46 0 L 145.38 0 L 145.38 -16.06 L 147.46 -16.06 L 147.46 -10.51 Q 148.96 -11.79 151.13 -11.79 L 151.13 -11.79 Q 155.54 -11.79 155.54 -7.4 L 155.54 -7.4 L 155.54 0 L 153.46 0 L 153.46 -7.43 Q 153.46 -10.06 150.85 -10.06 L 150.85 -10.06 Q 149.06 -10.06 147.46 -8.57 L 147.46 -8.57 L 147.46 0 Z M 159.58 2.81 L 157.51 2.81 L 159.19 -2.08 L 161.27 -2.08 L 159.58 2.81 Z M 168.85 -0.48 L 168.85 -0.48 L 168.85 -16.06 L 170.93 -16.06 L 170.93 -11.23 Q 172.26 -11.79 173.79 -11.79 L 173.79 -11.79 Q 179.38 -11.79 179.38 -6.13 L 179.38 -6.13 Q 179.38 0 173.51 0 L 173.51 0 Q 170.97 0 168.85 -0.48 Z M 170.93 -9.39 L 170.93 -2.06 Q 171.95 -1.73 173.41 -1.73 L 173.41 -1.73 Q 177.34 -1.73 177.34 -6.21 L 177.34 -6.21 Q 177.34 -10 173.78 -10 L 173.78 -10 Q 172.16 -10 170.93 -9.39 L 170.93 -9.39 Z M 182.19 -4.39 L 182.19 -4.39 L 182.19 -11.79 L 184.27 -11.79 L 184.27 -4.36 Q 184.27 -1.73 186.88 -1.73 L 186.88 -1.73 Q 188.66 -1.73 190.28 -3.22 L 190.28 -3.22 L 190.28 -11.79 L 192.36 -11.79 L 192.36 0 L 190.93 0 L 190.57 -1.5 Q 188.42 0 186.26 0 L 186.26 0 Q 182.19 0 182.19 -4.39 Z M 198.03 0 L 195.95 0 L 195.95 -11.79 L 198.03 -11.79 L 198.03 0 Z M 198.03 -14.09 L 195.95 -14.09 L 195.95 -16.06 L 198.03 -16.06 L 198.03 -14.09 Z M 203.81 0 L 201.73 0 L 201.73 -16.06 L 203.81 -16.06 L 203.81 0 Z M 206.73 -6.13 L 206.73 -6.13 Q 206.73 -11.79 212.32 -11.79 L 212.32 -11.79 Q 213.85 -11.79 215.21 -11.23 L 215.21 -11.23 L 215.21 -16.06 L 217.29 -16.06 L 217.29 -0.71 Q 215.14 0 212 0 L 212 0 Q 206.73 0 206.73 -6.13 Z M 208.77 -6.21 L 208.77 -6.21 Q 208.77 -1.73 212.33 -1.73 L 212.33 -1.73 Q 213.95 -1.73 215.21 -2.17 L 215.21 -2.17 L 215.21 -9.39 Q 213.95 -10 212.33 -10 L 212.33 -10 Q 208.77 -10 208.77 -6.21 Z M 226.27 -3.18 L 226.27 -3.18 L 226.27 -13.7 L 227.57 -13.7 L 228.02 -11.79 L 231.21 -11.79 L 231.21 -10.11 L 228.35 -10.11 L 228.35 -3.34 Q 228.35 -1.68 229.78 -1.68 L 229.78 -1.68 L 231.21 -1.68 L 231.21 0 L 229.24 0 Q 226.27 0 226.27 -3.18 Z M 235.93 0 L 233.85 0 L 233.85 -16.06 L 235.93 -16.06 L 235.93 -10.51 Q 237.43 -11.79 239.6 -11.79 L 239.6 -11.79 Q 244.02 -11.79 244.02 -7.4 L 244.02 -7.4 L 244.02 0 L 241.94 0 L 241.94 -7.43 Q 241.94 -10.06 239.32 -10.06 L 239.32 -10.06 Q 237.54 -10.06 235.93 -8.57 L 235.93 -8.57 L 235.93 0 Z M 246.82 -6.03 L 246.82 -6.03 Q 246.82 -11.79 252.25 -11.79 L 252.25 -11.79 Q 257.28 -11.79 257.28 -6.82 L 257.28 -6.82 Q 257.28 -6.11 257.18 -5.3 L 257.18 -5.3 L 248.9 -5.3 Q 248.9 -1.68 253.12 -1.68 L 253.12 -1.68 Q 255.13 -1.68 256.69 -2.13 L 256.69 -2.13 L 256.69 -0.45 Q 255.13 0 252.9 0 L 252.9 0 Q 246.82 0 246.82 -6.03 Z M 248.9 -7.03 L 248.9 -7.03 L 255.28 -7.03 Q 255.21 -10.13 252.25 -10.13 L 252.25 -10.13 Q 249.1 -10.13 248.9 -7.03 Z M 265.13 -6.13 L 265.13 -6.13 Q 265.13 -11.79 270.72 -11.79 L 270.72 -11.79 Q 272.25 -11.79 273.61 -11.23 L 273.61 -11.23 L 273.61 -16.06 L 275.69 -16.06 L 275.69 -0.71 Q 273.54 0 270.4 0 L 270.4 0 Q 265.13 0 265.13 -6.13 Z M 267.17 -6.21 L 267.17 -6.21 Q 267.17 -1.73 270.73 -1.73 L 270.73 -1.73 Q 272.35 -1.73 273.61 -2.17 L 273.61 -2.17 L 273.61 -9.39 Q 272.35 -10 270.73 -10 L 270.73 -10 Q 267.17 -10 267.17 -6.21 Z M 281.13 0 L 279.05 0 L 279.05 -11.79 L 280.46 -11.79 L 280.83 -10.29 Q 282.38 -11.79 284.56 -11.79 L 284.56 -11.79 L 284.56 -10.06 Q 282.45 -10.06 281.13 -8.57 L 281.13 -8.57 L 281.13 0 Z M 286.07 -6.03 L 286.07 -6.03 Q 286.07 -11.79 291.5 -11.79 L 291.5 -11.79 Q 296.53 -11.79 296.53 -6.82 L 296.53 -6.82 Q 296.53 -6.11 296.43 -5.3 L 296.43 -5.3 L 288.15 -5.3 Q 288.15 -1.68 292.37 -1.68 L 292.37 -1.68 Q 294.38 -1.68 295.95 -2.13 L 295.95 -2.13 L 295.95 -0.45 Q 294.38 0 292.15 0 L 292.15 0 Q 286.07 0 286.07 -6.03 Z M 288.15 -7.03 L 288.15 -7.03 L 294.53 -7.03 Q 294.46 -10.13 291.5 -10.13 L 291.5 -10.13 Q 288.35 -10.13 288.15 -7.03 Z M 298.76 -3.56 L 298.76 -3.56 Q 298.76 -7.19 303.55 -7.19 L 303.55 -7.19 Q 305.09 -7.19 306.63 -6.96 L 306.63 -6.96 L 306.63 -8.07 Q 306.63 -10.11 303.45 -10.11 L 303.45 -10.11 Q 301.63 -10.11 299.72 -9.55 L 299.72 -9.55 L 299.72 -11.23 Q 301.63 -11.79 303.45 -11.79 L 303.45 -11.79 Q 308.7 -11.79 308.7 -8.13 L 308.7 -8.13 L 308.7 0 L 307.54 0 L 306.82 -1.17 Q 305.05 0 302.98 0 L 302.98 0 Q 298.76 0 298.76 -3.56 Z M 300.84 -3.59 L 300.84 -3.59 Q 300.84 -1.68 302.98 -1.68 L 302.98 -1.68 Q 305.13 -1.68 306.63 -2.83 L 306.63 -2.83 L 306.63 -5.28 Q 305.09 -5.5 303.55 -5.5 L 303.55 -5.5 Q 300.84 -5.5 300.84 -3.59 Z M 314.15 0 L 312.07 0 L 312.07 -11.79 L 313.48 -11.79 L 313.82 -10.31 Q 315.52 -11.79 317.52 -11.79 L 317.52 -11.79 Q 320.08 -11.79 321.01 -10.17 L 321.01 -10.17 Q 322.93 -11.79 324.91 -11.79 L 324.91 -11.79 Q 328.97 -11.79 328.97 -7.31 L 328.97 -7.31 L 328.97 0 L 326.9 0 L 326.9 -7.42 Q 326.9 -10.06 324.67 -10.06 L 324.67 -10.06 Q 323.01 -10.06 321.56 -8.54 L 321.56 -8.54 L 321.56 0 L 319.48 0 L 319.48 -7.39 Q 319.48 -10.06 317.28 -10.06 L 317.28 -10.06 Q 315.53 -10.06 314.15 -8.54 L 314.15 -8.54 L 314.15 0 Z" stroke-linecap="round" />
</g>
</svg>